<?xml version="1.0" encoding="iso-8859-1"?>
<!-- Generator: Adobe Illustrator 19.0.0, SVG Export Plug-In . SVG Version: 6.00 Build 0)  -->
<svg version="1.1" id="Layer_1" xmlns="http://www.w3.org/2000/svg" xmlns:xlink="http://www.w3.org/1999/xlink" x="0px" y="0px"
	 viewBox="0 0 504 504" style="enable-background:new 0 0 504 504;" xml:space="preserve">
<circle style="fill:#324A5E;" cx="252" cy="252" r="252"/>
<path style="fill:#E6E9EE;" d="M360.5,128.4h-217l0,0c0-26.6,21.6-48.2,48.2-48.2h120.6C338.9,80.2,360.5,101.8,360.5,128.4
	L360.5,128.4z"/>
<g>
	<path style="fill:#FF7058;" d="M329.3,423.8H174.8c-7.8,0-14.4-6-15-13.8l-20.9-267.6h226.2L344.2,410
		C343.6,417.7,337.1,423.8,329.3,423.8z"/>
	<path style="fill:#FF7058;" d="M365.1,142.3l-7.9,101l-4.8,62.2L344.2,410c-0.6,7.8-7.1,13.8-15,13.8H174.8c-7.9,0-14.4-6-15-13.8
		l-8.2-104.5l-4.8-62.2l-7.9-101H365.1z"/>
</g>
<path style="fill:#E6E9EE;" d="M357.2,243.2l-4.8,62.2h-35.5c-3.5,7.4-8.3,14.1-14,19.8c-13,13-31,21.1-50.9,21.1
	c-28.6,0-53.3-16.7-64.9-40.8h-35.5l-4.8-62.2h40.4c3.5-7.4,8.3-14,14-19.8c13-13,31-21.1,50.9-21.1s37.8,8.1,50.9,21.1
	c5.7,5.7,10.5,12.4,14,19.8h40.2V243.2z"/>
<path style="fill:#CED5E0;" d="M364.6,153.4H139.4c-11.5,0-20.7-9.3-20.7-20.7l0,0c0-11.5,9.3-20.7,20.7-20.7h225.1
	c11.5,0,20.7,9.3,20.7,20.7l0,0C385.3,144.1,376,153.4,364.6,153.4z"/>
<ellipse transform="matrix(0.7071 -0.7071 0.7071 0.7071 -120.2184 258.5356)" style="fill:#FFD05B;" cx="251.971" cy="274.384" rx="29.6" ry="47.1"/>
<path style="fill:#F9B54C;" d="M279.2,301.5c0,0-0.1-0.3-0.3-0.9c-0.1-0.3-0.2-0.7-0.4-1.1c-0.1-0.5-0.3-1-0.6-1.5
	c-0.2-0.5-0.5-1.1-0.7-1.7c-0.3-0.6-0.6-1.3-1-1.9c-0.4-0.7-0.8-1.4-1.3-2.1s-1-1.4-1.5-2.1c-0.6-0.7-1.2-1.4-1.8-2.1
	c-0.7-0.7-1.3-1.4-2.1-2c-1.5-1.3-3.2-2.4-5-3.5c-1.8-1-3.9-1.7-5.9-2.3c-2.1-0.5-4.2-0.8-6.4-0.8h-0.5h-0.2H251l-1-0.1h-0.5
	c-0.2,0-0.3,0-0.6-0.1l-1.3-0.2c-0.8-0.1-1.7-0.2-2.4-0.5c-0.8-0.2-1.5-0.4-2.2-0.6s-1.4-0.6-2.2-0.8l-1.1-0.5l-1-0.5
	c-0.7-0.4-1.3-0.7-2-1.1c-0.6-0.4-1.2-0.8-1.8-1.3c-2.3-1.8-4.3-3.8-5.8-5.9c-0.8-1-1.4-2.2-2-3.2c-0.6-1.1-1-2.2-1.4-3.2
	c-0.3-1.1-0.7-2.1-0.9-3.1s-0.4-1.9-0.5-2.8s-0.1-1.7-0.1-2.5s0.1-1.5,0.1-2.1c0-0.3,0.1-0.6,0.1-0.9c0-0.3,0.1-0.5,0.2-0.8
	c0.1-0.5,0.2-0.9,0.3-1.2c0.1-0.6,0.2-1,0.2-1s0.1,0.3,0.3,0.9c0.2,0.6,0.5,1.5,0.9,2.6c0.2,0.5,0.5,1.1,0.7,1.7
	c0.3,0.6,0.6,1.3,1,1.9c0.4,0.7,0.8,1.4,1.3,2.1s1,1.4,1.5,2.1c0.6,0.7,1.2,1.4,1.8,2.1c0.7,0.7,1.3,1.4,2.1,2
	c1.5,1.3,3.2,2.4,5,3.5c1.8,1,3.9,1.7,5.9,2.3l1.6,0.3c0.3,0.1,0.5,0.1,0.8,0.1l0.7,0.1l0.7,0.1c0.1,0,0.3,0,0.4,0h0.5h1h0.5h0.2
	h0.1h0.1l0,0c-0.1,0,0.3,0-0.2,0c3.2,0.1,6.3,0.5,9.3,1.5c0.7,0.2,1.4,0.5,2.2,0.8l1.1,0.5l1,0.5c0.7,0.4,1.3,0.7,2,1.1
	c0.6,0.4,1.2,0.8,1.8,1.3c2.3,1.8,4.3,3.8,5.8,5.9c0.8,1,1.4,2.2,2,3.2c0.6,1.1,1,2.2,1.4,3.2c0.3,1.1,0.7,2.1,0.9,3.1
	c0.2,1,0.4,1.9,0.5,2.8s0.1,1.7,0.1,2.5s-0.1,1.5-0.1,2.1c0,0.3-0.1,0.6-0.1,0.9s-0.1,0.5-0.2,0.7c-0.1,0.5-0.2,0.8-0.3,1.2
	C279.2,301.2,279.2,301.5,279.2,301.5z"/>
<g>
</g>
<g>
</g>
<g>
</g>
<g>
</g>
<g>
</g>
<g>
</g>
<g>
</g>
<g>
</g>
<g>
</g>
<g>
</g>
<g>
</g>
<g>
</g>
<g>
</g>
<g>
</g>
<g>
</g>
</svg>
